<?xml version="1.0" standalone="no"?>
<!DOCTYPE svg PUBLIC "-//W3C//DTD SVG 20010904//EN"
 "http://www.w3.org/TR/2001/REC-SVG-20010904/DTD/svg10.dtd">
<svg version="1.0" xmlns="http://www.w3.org/2000/svg"
 width="700.000000pt" height="700.000000pt" viewBox="0 0 700.000000 700.000000"
 preserveAspectRatio="xMidYMid meet">
<metadata>
Created by potrace 1.14, written by Peter Selinger 2001-2017
</metadata>
<g transform="translate(0.000000,700.000000) scale(0.100000,-0.100000)"
fill="#000000" stroke="none">
<path d="M2847 6622 c-9 -2 -18 -9 -18 -15 -4 -33 -8 -57 -17 -112 -6 -33 -14
-78 -17 -100 -3 -22 -10 -65 -15 -95 -5 -30 -12 -73 -16 -95 -7 -49 -69 -437
-89 -560 -8 -49 -22 -135 -30 -190 -23 -144 -24 -147 -29 -180 -3 -16 -10 -59
-15 -95 -6 -36 -13 -74 -15 -86 -2 -12 -7 -45 -11 -75 -4 -30 -8 -56 -10 -59
-2 -3 -6 -27 -9 -55 -7 -54 -12 -80 -26 -165 -10 -58 -18 -106 -25 -155 -6
-37 -74 -460 -80 -496 -5 -25 -9 -53 -20 -134 -3 -22 -15 -94 -26 -160 -11
-66 -22 -133 -25 -150 -2 -16 -6 -41 -9 -55 -3 -14 -7 -43 -11 -65 -6 -48 -7
-48 -39 -250 -26 -161 -55 -343 -60 -380 -6 -42 -16 -99 -20 -119 -2 -12 -7
-38 -10 -58 -11 -77 -16 -115 -29 -188 -3 -19 -8 -46 -10 -60 -2 -14 -7 -41
-10 -60 -5 -32 -49 -306 -59 -375 -3 -16 -7 -46 -11 -65 -3 -19 -8 -48 -10
-65 -2 -16 -14 -88 -26 -160 -11 -71 -23 -141 -25 -155 -2 -14 -11 -68 -19
-120 -8 -52 -18 -113 -21 -135 -3 -22 -10 -67 -16 -100 -7 -33 -13 -69 -14
-80 -3 -20 -12 -75 -20 -125 -5 -30 -84 -532 -91 -575 -2 -16 -7 -41 -9 -55
l-5 -25 437 2 c241 0 443 1 449 2 11 1 16 23 30 131 3 19 7 46 9 60 3 14 7 45
10 70 3 25 8 56 10 70 2 14 9 63 16 110 6 47 13 94 14 105 2 11 6 43 10 70 4
28 9 57 10 66 2 9 6 40 10 69 4 29 8 61 10 70 2 9 6 41 10 70 4 29 8 60 10 69
1 9 6 41 10 71 4 30 9 62 10 70 1 8 6 39 10 68 l7 52 551 -2 551 -3 12 -85
c13 -90 20 -146 29 -220 4 -25 10 -67 15 -95 5 -27 11 -72 14 -100 3 -27 8
-59 10 -70 2 -11 7 -45 11 -75 4 -30 9 -62 10 -70 1 -8 6 -40 10 -70 4 -30 8
-62 10 -70 1 -8 6 -42 10 -75 4 -32 8 -66 10 -75 1 -8 8 -55 15 -105 7 -49 17
-94 21 -100 8 -11 944 -13 954 -3 3 3 -3 61 -14 129 -11 68 -25 153 -31 189
-5 36 -12 74 -14 85 -2 11 -6 41 -10 66 -4 25 -9 57 -11 70 -2 13 -6 40 -9 59
-3 19 -17 105 -31 190 -14 85 -28 169 -30 185 -2 17 -9 62 -15 100 -7 39 -14
84 -17 100 -2 17 -13 86 -25 155 -11 69 -22 136 -23 150 -5 37 -15 101 -22
135 -4 17 -8 39 -9 50 -3 26 -32 213 -39 245 -2 13 -7 42 -10 65 -3 22 -17
110 -31 195 -14 85 -27 169 -30 185 -2 17 -6 41 -9 55 -5 28 -11 65 -20 125
-3 23 -8 52 -10 65 -3 14 -7 43 -10 65 -3 22 -12 81 -21 130 -8 50 -17 101
-19 115 -24 149 -29 182 -39 245 -19 128 -28 183 -32 205 -3 14 -12 68 -20
120 -8 52 -17 106 -20 120 -2 14 -7 43 -10 65 -3 22 -9 63 -14 90 -5 28 -11
66 -14 85 -7 47 -36 229 -42 260 -2 14 -9 54 -14 90 -5 36 -23 146 -39 245
-38 229 -42 254 -47 290 -5 40 -10 73 -28 180 -18 108 -53 324 -61 380 -4 22
-8 51 -11 65 -2 14 -9 54 -14 90 -5 36 -16 103 -24 150 -18 107 -23 138 -36
225 -6 39 -22 137 -35 219 -14 81 -25 159 -25 171 0 13 -5 27 -12 31 -12 7
-1255 13 -1291 6z m618 -1148 c4 -31 8 -66 10 -78 5 -30 23 -162 30 -216 3
-25 8 -56 10 -70 5 -28 8 -54 25 -180 6 -47 13 -96 15 -110 2 -14 8 -59 14
-100 6 -41 13 -91 15 -110 11 -73 35 -248 46 -326 6 -44 12 -89 14 -100 2 -10
9 -62 15 -114 7 -52 16 -120 21 -150 9 -56 13 -84 25 -175 4 -27 9 -61 11 -75
2 -14 7 -50 10 -80 3 -30 7 -57 9 -60 2 -3 6 -33 10 -67 3 -34 8 -72 10 -84 6
-28 9 -52 35 -244 30 -216 30 -219 34 -240 2 -11 7 -45 10 -76 4 -31 8 -65 10
-75 9 -53 19 -120 18 -125 0 -3 5 -42 12 -87 l13 -82 -86 -1 c-107 0 -610 0
-710 1 l-73 0 6 51 c3 27 13 100 22 162 9 62 17 124 19 140 2 15 9 62 15 105
6 43 13 96 15 117 7 55 15 110 25 180 5 33 12 80 15 105 3 25 8 56 10 70 3 14
7 50 10 80 3 30 10 82 15 115 5 33 12 80 15 105 3 25 8 56 10 70 2 14 18 129
35 255 32 246 39 296 45 335 2 14 7 50 10 80 3 30 8 62 10 70 2 8 9 53 15 100
6 47 13 99 15 115 3 17 16 116 30 220 15 105 28 204 31 220 5 39 13 98 20 155
3 25 7 56 9 70 2 14 7 45 10 70 3 25 8 54 10 65 2 11 4 24 4 28 1 5 5 6 10 3
5 -3 12 -31 16 -62z"/>
</g>
</svg>
