<?xml version="1.0" standalone="no"?>
<!DOCTYPE svg PUBLIC "-//W3C//DTD SVG 20010904//EN"
 "http://www.w3.org/TR/2001/REC-SVG-20010904/DTD/svg10.dtd">
<svg version="1.0" xmlns="http://www.w3.org/2000/svg"
 width="1080.000000pt" height="1080.000000pt" viewBox="0 0 1080.000000 1080.000000"
 preserveAspectRatio="xMidYMid meet">
<metadata>
Created by potrace 1.14, written by Peter Selinger 2001-2017
</metadata>
<g transform="translate(0.000000,1080.000000) scale(0.100000,-0.100000)"
fill="#000000" stroke="none">
<path d="M5620 10063 c-30 -8 -60 -15 -67 -15 -7 -1 -14 -7 -17 -15 -7 -18
-46 -17 -46 2 0 12 -4 13 -17 6 -19 -10 -25 -11 -48 -11 -8 0 -15 -6 -15 -14
0 -8 -7 -17 -16 -20 -24 -9 -64 -7 -64 4 0 14 -38 -5 -175 -86 -66 -39 -146
-84 -177 -99 -32 -16 -58 -33 -58 -37 0 -4 -5 -8 -11 -8 -6 0 -45 -23 -87 -51
-69 -45 -81 -49 -117 -44 -22 3 -44 6 -50 7 -15 2 -117 -12 -125 -17 -3 -2
-19 -6 -35 -9 -16 -3 -31 -10 -35 -16 -4 -7 -10 -11 -14 -11 -13 2 -61 -12
-73 -22 -7 -5 -13 -6 -13 -2 0 5 -8 1 -17 -7 -10 -9 -33 -19 -50 -23 -18 -3
-36 -12 -40 -19 -5 -6 -30 -25 -58 -41 -27 -15 -53 -33 -57 -38 -3 -6 -15 -11
-25 -12 -10 0 -29 -11 -42 -24 -12 -12 -27 -21 -34 -18 -6 2 -20 -5 -31 -15
-11 -10 -28 -18 -38 -18 -11 0 -18 -7 -18 -19 0 -11 -13 -25 -32 -34 -31 -15
-72 -50 -110 -93 -21 -24 -34 -34 -81 -63 -52 -32 -67 -49 -60 -68 4 -9 -1
-21 -12 -29 -10 -8 -16 -14 -12 -14 5 0 2 -6 -5 -14 -7 -8 -16 -12 -20 -10 -6
4 -23 -35 -20 -47 1 -4 -10 -19 -24 -34 -20 -21 -24 -34 -19 -56 6 -25 3 -30
-19 -39 -15 -5 -27 -18 -27 -30 -1 -19 -4 -31 -9 -47 -1 -5 -2 -11 -1 -15 0
-5 -3 -9 -9 -9 -5 -1 -15 -2 -21 -3 -6 0 -16 -9 -23 -18 -7 -10 -16 -15 -19
-11 -6 6 -11 -12 -8 -29 0 -5 -5 -8 -11 -9 -7 0 -26 -27 -42 -59 -16 -33 -37
-68 -47 -79 -11 -12 -14 -21 -7 -23 6 -2 2 -22 -13 -53 -13 -28 -23 -52 -24
-55 0 -3 -8 -19 -17 -36 -10 -17 -19 -43 -22 -57 -2 -15 -8 -32 -11 -37 -4 -6
-7 -28 -6 -48 0 -20 -8 -66 -18 -102 -32 -111 -44 -164 -42 -188 0 -13 -6 -37
-14 -53 -9 -16 -13 -34 -10 -38 3 -5 0 -22 -6 -38 -6 -15 -13 -39 -16 -53 -2
-13 -9 -30 -15 -37 -6 -7 -7 -13 -3 -13 4 0 3 -6 -2 -12 -5 -7 -8 -23 -7 -35
0 -13 -2 -23 -6 -23 -5 0 -7 -8 -5 -17 1 -10 -3 -32 -10 -50 -8 -17 -11 -41
-8 -51 2 -11 -1 -31 -8 -43 -8 -16 -14 -78 -16 -184 -1 -88 -3 -164 -3 -170
-2 -20 11 -401 14 -425 2 -14 0 -49 -4 -78 -3 -29 -3 -55 2 -58 4 -3 6 -29 4
-57 -3 -29 -7 -174 -9 -322 -2 -149 -7 -276 -11 -283 -4 -7 -3 -12 3 -12 5 0
8 -10 6 -22 -3 -12 -6 -37 -7 -55 -1 -18 -4 -33 -6 -33 -16 0 -62 34 -67 50
-3 11 -9 19 -13 17 -7 -2 -50 34 -97 80 -13 12 -26 19 -29 16 -3 -4 -6 -1 -6
5 0 7 -3 11 -7 11 -5 -1 -10 0 -13 1 -43 16 -124 16 -145 -2 -44 -37 -84 -82
-79 -89 3 -5 1 -9 -4 -9 -5 0 -13 -10 -17 -22 -4 -13 -8 -25 -10 -28 -11 -25
-15 -40 -20 -74 -3 -21 -8 -43 -11 -48 -3 -5 -7 -19 -9 -31 -1 -12 -6 -37 -9
-54 -11 -61 -15 -88 -21 -168 -4 -44 -8 -82 -8 -85 -1 -6 14 -160 18 -180 1
-8 5 -31 9 -50 3 -19 8 -46 11 -60 3 -14 7 -43 10 -65 4 -22 7 -47 9 -55 1 -8
6 -31 10 -50 13 -68 24 -169 30 -273 3 -42 7 -92 10 -110 3 -17 8 -45 10 -62
3 -16 9 -44 14 -62 6 -17 8 -34 4 -37 -3 -3 -1 -6 5 -6 8 0 25 -46 36 -100 0
-3 7 -11 14 -18 7 -7 13 -22 13 -32 0 -10 4 -21 9 -25 5 -3 22 -31 38 -63 15
-31 31 -58 36 -60 4 -2 7 -12 7 -23 0 -10 4 -19 8 -19 5 0 15 -19 23 -42 14
-43 85 -160 100 -166 5 -2 9 -9 9 -16 0 -6 9 -18 20 -26 11 -8 20 -20 20 -27
0 -7 4 -13 9 -13 4 0 25 -16 45 -35 20 -19 43 -38 50 -42 8 -5 16 -19 18 -33
1 -14 6 -27 10 -30 4 -3 9 -19 12 -36 3 -17 12 -48 20 -70 13 -39 22 -82 31
-158 3 -21 8 -42 11 -47 3 -5 7 -22 9 -37 3 -15 7 -38 10 -52 13 -53 21 -94
31 -150 4 -19 9 -44 11 -55 3 -11 5 -26 5 -32 1 -7 6 -13 11 -13 5 0 7 -7 4
-15 -4 -8 -2 -17 3 -20 6 -4 10 -14 10 -24 0 -10 7 -32 15 -48 8 -17 18 -50
21 -74 4 -24 16 -62 27 -84 12 -22 21 -44 22 -50 1 -10 14 -43 40 -100 12 -27
26 -66 31 -87 1 -5 3 -10 4 -13 1 -3 3 -8 4 -12 1 -5 7 -18 14 -30 7 -13 9
-23 5 -23 -4 0 -3 -4 2 -8 9 -6 38 -63 36 -69 0 -2 8 -19 19 -38 11 -20 20
-42 20 -49 0 -8 3 -16 8 -18 4 -1 15 -19 25 -38 10 -19 26 -48 36 -65 9 -16
23 -41 31 -55 8 -14 13 -29 12 -33 -1 -4 5 -10 13 -13 8 -3 12 -10 9 -15 -3
-5 0 -9 6 -9 6 0 8 -4 5 -10 -3 -5 -2 -10 4 -10 5 0 13 -9 16 -20 3 -11 12
-26 19 -32 7 -7 25 -34 40 -61 15 -26 32 -47 38 -47 5 0 6 -5 3 -10 -3 -6 -2
-10 2 -10 5 0 16 -13 25 -28 9 -15 30 -43 47 -62 17 -19 31 -40 31 -46 0 -6
11 -20 25 -30 14 -10 25 -24 25 -31 0 -7 5 -13 10 -13 6 0 10 -7 10 -16 0 -8
4 -13 8 -10 5 3 17 -7 28 -21 10 -15 25 -32 33 -40 7 -8 34 -42 59 -76 45 -61
81 -103 135 -159 15 -15 24 -28 20 -28 -4 0 1 -7 11 -15 11 -8 16 -15 11 -15
-5 0 0 -10 11 -22 33 -37 94 -127 94 -138 0 -6 7 -13 15 -16 8 -4 13 -10 10
-14 -3 -5 3 -13 12 -19 10 -6 14 -11 10 -11 -8 0 3 -15 40 -56 13 -14 27 -33
33 -44 38 -71 237 -239 377 -317 82 -47 170 -80 353 -134 110 -32 298 -32 469
1 163 31 249 71 468 218 120 80 164 117 285 241 163 168 279 306 394 471 189
271 480 722 516 800 71 153 78 169 78 177 -1 18 116 279 127 286 7 4 13 16 13
27 0 10 3 20 8 22 12 5 42 69 42 91 1 12 11 47 24 77 14 30 22 58 20 62 -3 5
-1 8 4 8 15 0 49 79 56 128 3 23 10 50 15 60 5 9 9 21 9 25 0 19 57 183 66
189 6 4 8 8 3 8 -4 0 -1 16 7 35 8 19 12 35 9 35 -3 0 0 7 7 15 7 8 10 15 6
15 -4 0 0 10 8 23 7 12 19 39 26 60 11 37 50 67 85 67 8 0 15 3 15 8 0 4 13
13 28 20 35 15 98 71 95 83 -2 5 1 9 6 9 21 0 56 109 66 203 3 27 12 64 20 83
8 19 12 34 10 34 -2 0 3 17 12 37 8 21 17 49 20 63 2 14 8 27 14 28 5 2 7 7 4
12 -3 5 -1 19 4 32 5 13 12 46 15 73 4 28 9 64 11 80 3 17 7 77 10 135 3 58 7
119 10 135 7 58 15 110 20 135 4 14 8 36 11 50 13 70 27 129 39 161 8 20 11
39 8 43 -4 3 -1 6 6 6 7 0 9 5 6 10 -4 6 -2 17 4 24 6 7 12 25 13 40 1 14 5
26 9 26 3 0 6 6 7 13 0 6 8 37 17 67 9 30 18 64 19 75 2 11 4 20 6 20 2 0 7
40 15 145 3 47 8 90 10 97 2 7 1 15 -4 17 -4 3 -9 29 -10 58 -2 29 -3 59 -4
66 0 6 -4 12 -9 12 -4 0 -7 3 -6 8 3 16 -18 49 -59 91 -24 24 -43 40 -43 36 0
-4 -6 -2 -14 4 -17 14 -96 12 -96 -3 0 -5 -3 -6 -6 -3 -4 4 -20 -3 -35 -14
-16 -11 -29 -18 -29 -15 0 3 -16 -10 -36 -30 -60 -58 -69 -47 -70 86 0 63 3
133 8 155 8 44 16 118 22 210 2 33 7 78 10 100 12 88 18 163 18 220 -1 33 4
75 9 93 6 18 12 49 14 70 2 20 4 37 5 37 1 0 2 24 3 53 0 28 5 52 10 52 6 0 7
3 4 7 -4 3 -3 11 2 17 6 6 11 23 13 37 2 14 11 34 21 43 9 10 17 26 17 36 0
10 4 21 9 24 5 3 12 23 16 43 4 21 15 64 26 95 10 32 20 66 22 75 2 10 9 29
16 43 8 13 14 36 13 51 0 15 8 36 18 46 10 11 18 31 19 44 0 13 1 63 2 112 1
48 6 87 11 87 5 0 4 10 -3 21 -6 12 -9 37 -7 55 2 19 0 34 -5 34 -4 0 -5 5 -2
10 3 6 2 10 -3 10 -11 0 -35 94 -37 147 -1 23 -7 49 -15 57 -7 9 -10 16 -7 16
3 0 -1 20 -8 44 -8 24 -11 47 -8 50 4 3 0 6 -7 6 -7 0 -11 3 -7 6 3 3 -1 23
-8 45 -8 21 -11 39 -7 39 4 0 1 4 -7 9 -8 5 -15 32 -17 67 -6 103 -15 154 -27
147 -5 -3 -7 -1 -3 5 3 6 2 13 -4 17 -6 4 -8 10 -5 15 3 4 -2 13 -10 20 -8 7
-15 19 -15 26 0 8 -5 14 -10 14 -6 0 -9 3 -8 8 4 15 -14 53 -38 79 -13 14 -24
32 -24 39 0 8 -4 14 -10 14 -5 0 -10 8 -10 18 0 10 -16 33 -35 52 -19 19 -35
38 -35 43 0 5 -10 18 -22 28 -11 11 -17 19 -12 19 5 0 4 4 -1 8 -21 14 -55 65
-49 73 3 5 0 9 -7 9 -7 0 -10 3 -6 6 3 3 -6 17 -21 31 -15 13 -21 21 -13 17 9
-5 12 -3 7 4 -4 7 -12 12 -17 12 -11 0 -48 40 -49 52 0 10 -101 108 -111 108
-4 0 -11 9 -14 21 -4 11 -9 18 -12 15 -4 -4 -45 29 -105 87 -10 9 -20 17 -22
17 -11 0 -185 174 -181 180 3 4 -11 21 -31 36 -20 16 -43 35 -50 42 -7 6 -15
12 -18 12 -3 0 -14 8 -24 18 -30 28 -114 96 -133 107 -36 20 -104 70 -122 90
-10 11 -15 13 -11 5 4 -8 -10 2 -32 23 -21 21 -58 47 -81 58 -24 12 -43 25
-43 30 0 4 -7 6 -15 3 -8 -4 -15 -2 -15 4 0 5 -9 12 -21 15 -12 3 -18 10 -14
17 3 6 2 9 -2 8 -5 -2 -34 13 -64 31 -30 19 -71 43 -91 52 -40 19 -99 58 -110
74 -4 6 -8 6 -8 2 0 -4 -9 -3 -21 3 -11 7 -35 13 -52 15 -18 2 -33 4 -34 5 -2
2 -7 4 -13 5 -5 1 -11 3 -12 5 -9 6 -54 11 -133 14 -171 8 -259 16 -269 26 -5
5 -20 10 -32 10 -13 0 -26 5 -30 11 -4 7 -31 9 -73 7 -36 -3 -75 -2 -86 2 -11
3 -45 0 -75 -7z"/>
</g>
</svg>
