<?xml version="1.0" standalone="no"?>
<!DOCTYPE svg PUBLIC "-//W3C//DTD SVG 20010904//EN"
 "http://www.w3.org/TR/2001/REC-SVG-20010904/DTD/svg10.dtd">
<svg version="1.0" xmlns="http://www.w3.org/2000/svg"
 width="700.000000pt" height="700.000000pt" viewBox="0 0 700.000000 700.000000"
 preserveAspectRatio="xMidYMid meet">
<metadata>
Created by potrace 1.14, written by Peter Selinger 2001-2017
</metadata>
<g transform="translate(0.000000,700.000000) scale(0.100000,-0.100000)"
fill="#000000" stroke="none">
<path d="M1831 6989 c-353 -37 -724 -183 -1006 -395 -465 -348 -756 -865 -815
-1443 -14 -142 -14 -3160 0 -3302 98 -962 844 -1722 1800 -1833 199 -23 3177
-24 3375 -1 951 111 1689 849 1800 1800 13 111 15 362 15 1685 0 1661 0 1677
-50 1898 -192 862 -916 1503 -1799 1592 -127 12 -3196 12 -3320 -1z m200 -439
c46 -13 52 -35 27 -92 -34 -75 -77 -237 -153 -585 -3 -13 -4 -23 -1 -23 2 0
23 26 47 58 75 99 119 142 147 142 29 0 62 -26 62 -48 0 -8 -25 -100 -55 -205
-31 -104 -54 -192 -51 -195 6 -6 122 43 335 141 146 67 155 70 180 56 52 -29
32 -124 -44 -207 -51 -57 -128 -103 -365 -219 -231 -114 -290 -156 -290 -208
0 -129 182 -392 404 -585 85 -74 89 -75 194 -103 59 -15 140 -43 181 -62 41
-20 75 -34 77 -33 1 2 12 61 24 132 38 225 89 371 163 468 79 103 106 193 116
392 6 110 10 130 26 142 30 22 59 16 92 -18 70 -75 104 -193 104 -362 0 -193
-37 -354 -130 -568 -70 -161 -85 -218 -86 -323 0 -103 19 -172 64 -225 28 -34
29 -35 102 -32 80 3 162 -14 244 -52 l50 -23 50 24 c76 35 187 56 261 50 64
-5 65 -5 94 31 46 56 65 123 65 227 -1 105 -16 162 -86 323 -93 214 -130 375
-130 568 0 169 34 287 104 362 33 34 62 40 92 18 16 -12 20 -32 26 -142 10
-199 37 -289 116 -392 74 -97 125 -243 163 -468 12 -71 23 -130 24 -132 2 -1
37 14 78 33 41 20 124 48 183 63 l108 26 134 130 c202 195 317 361 346 500
l12 59 -45 40 c-28 25 -120 77 -250 140 -238 117 -314 162 -365 219 -76 83
-96 178 -44 207 25 14 34 11 180 -56 182 -84 329 -146 335 -140 2 2 -21 89
-51 192 -30 104 -55 196 -55 204 0 24 32 51 60 51 30 0 72 -40 149 -143 24
-32 45 -56 47 -55 10 11 -108 490 -143 576 -39 97 -30 132 33 132 28 0 39 -8
79 -59 148 -193 289 -490 356 -750 39 -151 59 -278 69 -436 6 -105 13 -144 35
-200 53 -139 44 -277 -28 -425 -34 -71 -58 -102 -143 -187 -99 -100 -101 -103
-82 -120 66 -59 74 -152 27 -311 -17 -59 -35 -149 -40 -202 -7 -75 -16 -109
-43 -165 -96 -204 -355 -365 -670 -415 -44 -8 -87 -21 -101 -32 -13 -10 -39
-49 -57 -86 -27 -54 -34 -81 -36 -142 -4 -69 1 -90 47 -230 108 -329 146 -551
138 -797 -6 -193 -23 -261 -108 -420 -70 -132 -98 -206 -106 -288 -9 -101 -46
-133 -107 -96 l-33 21 -29 -41 c-15 -22 -64 -66 -109 -98 -62 -44 -85 -67
-103 -104 -35 -72 -96 -75 -126 -4 l-13 32 -11 -40 c-7 -22 -12 -65 -12 -95 0
-30 -11 -85 -23 -121 -26 -77 -106 -214 -158 -270 -31 -34 -42 -39 -79 -39
-39 0 -49 5 -92 50 -65 67 -134 162 -171 235 -25 50 -31 77 -37 158 -7 106
-21 138 -38 89 -24 -70 -90 -66 -124 5 -18 37 -41 60 -103 104 -45 32 -94 76
-109 98 -16 23 -31 41 -33 41 -3 0 -16 -9 -30 -20 -33 -26 -49 -25 -77 3 -17
17 -24 39 -29 87 -8 86 -34 159 -106 293 -85 160 -102 227 -108 422 -8 248 34
485 142 810 44 129 47 146 43 217 -4 60 -11 91 -37 142 -38 78 -65 101 -128
110 -89 13 -237 54 -320 89 -173 73 -316 198 -379 332 -27 56 -36 90 -43 165
-5 53 -23 143 -40 202 -47 159 -39 252 27 311 19 17 17 20 -82 120 -85 85
-109 116 -143 187 -72 148 -81 286 -28 425 22 56 29 95 35 200 23 375 137 734
331 1047 54 87 136 198 147 198 4 0 23 -5 43 -10z"/>
<path d="M1771 5955 c-46 -118 -81 -240 -106 -363 -23 -115 -17 -130 25 -57
30 51 42 94 82 290 26 126 46 231 44 233 -2 2 -22 -44 -45 -103z"/>
<path d="M5183 6040 c3 -12 25 -116 48 -233 37 -183 48 -220 78 -272 23 -38
37 -53 39 -42 4 22 -23 158 -54 269 -26 94 -102 298 -111 298 -3 0 -3 -9 0
-20z"/>
<path d="M1887 5615 l-57 -84 33 6 c17 3 35 8 39 12 7 7 49 144 44 148 -1 2
-28 -35 -59 -82z"/>
<path d="M5050 5696 c0 -4 10 -41 22 -82 18 -64 24 -74 44 -74 12 0 30 -3 40
-7 10 -4 -3 24 -36 73 -57 86 -70 102 -70 90z"/>
<path d="M1727 5361 c-179 -314 -204 -442 -122 -608 40 -81 125 -179 216 -249
60 -46 88 -60 189 -94 580 -195 630 -223 719 -397 26 -50 65 -104 101 -141 60
-62 167 -148 175 -140 8 7 35 122 35 146 0 13 -12 38 -27 56 -41 48 -80 141
-94 219 -22 133 3 259 96 476 71 164 105 297 111 426 l5 100 -19 -55 c-24 -72
-53 -126 -92 -175 -72 -89 -115 -214 -154 -442 -14 -83 -36 -178 -47 -210 -27
-70 -85 -133 -123 -133 -29 0 -29 -7 -12 104 2 17 -80 65 -156 90 -42 14 -132
37 -200 52 -154 32 -270 79 -375 150 -253 171 -343 412 -239 640 40 88 138
176 271 247 61 32 101 55 90 52 -101 -36 -172 -55 -206 -55 -33 0 -42 5 -57
29 l-18 30 -67 -118z"/>
<path d="M5015 5423 c133 -71 231 -159 271 -247 104 -228 13 -473 -241 -641
-110 -73 -222 -117 -381 -151 -149 -31 -272 -73 -319 -108 -31 -24 -32 -27
-24 -68 12 -64 11 -68 -17 -68 -39 0 -97 63 -123 135 -13 33 -34 125 -47 204
-38 226 -83 357 -154 446 -40 50 -68 104 -91 175 l-18 55 0 -68 c-2 -134 36
-274 145 -536 62 -152 83 -268 67 -380 -14 -92 -43 -166 -90 -228 -18 -24 -33
-53 -33 -66 0 -24 28 -138 35 -145 8 -8 108 72 173 138 41 42 74 88 99 139 23
46 58 96 89 127 82 81 156 113 634 274 135 45 199 88 305 202 131 140 172 287
125 441 -21 66 -117 263 -181 369 l-35 56 -16 -29 c-26 -44 -79 -39 -263 26
-11 3 29 -20 90 -52z"/>
<path d="M1795 4945 c9 -67 36 -127 86 -186 36 -43 124 -118 169 -144 13 -8
13 -7 0 11 -8 10 -38 45 -67 77 -57 65 -128 167 -168 243 l-26 49 6 -50z"/>
<path d="M5165 4918 c-47 -85 -127 -192 -199 -267 -58 -61 -36 -55 55 15 69
53 133 128 158 186 17 39 39 138 30 138 -2 0 -22 -33 -44 -72z"/>
<path d="M1873 4313 c9 -2 25 -2 35 0 9 3 1 5 -18 5 -19 0 -27 -2 -17 -5z"/>
<path d="M5093 4313 c9 -2 25 -2 35 0 9 3 1 5 -18 5 -19 0 -27 -2 -17 -5z"/>
<path d="M1938 4303 c7 -3 16 -2 19 1 4 3 -2 6 -13 5 -11 0 -14 -3 -6 -6z"/>
<path d="M5048 4303 c7 -3 16 -2 19 1 4 3 -2 6 -13 5 -11 0 -14 -3 -6 -6z"/>
<path d="M2238 4186 c172 -93 217 -137 187 -182 -20 -30 -20 -31 13 -37 46 -9
97 -50 100 -80 4 -35 -11 -54 -57 -74 l-36 -15 42 -18 c53 -24 77 -58 64 -93
-5 -14 -19 -28 -30 -32 -19 -6 -17 -9 21 -38 71 -54 113 -119 144 -226 3 -9
20 9 44 45 37 57 116 139 170 176 l25 18 -35 27 c-139 112 -216 198 -268 302
-43 87 -78 118 -187 171 -69 32 -231 90 -253 90 -4 0 21 -16 56 -34z"/>
<path d="M4720 4191 c-107 -34 -224 -91 -270 -129 -20 -17 -52 -62 -72 -103
-53 -105 -150 -214 -266 -297 l-43 -30 43 -30 c55 -39 105 -92 157 -166 24
-35 42 -53 45 -45 31 106 73 172 144 226 38 29 40 32 21 38 -11 4 -25 18 -30
32 -13 35 11 69 64 93 l42 18 -36 15 c-46 20 -61 39 -57 74 3 30 54 71 101 80
31 6 32 7 12 36 -8 12 -12 32 -9 44 6 23 77 73 194 137 78 43 72 44 -40 7z"/>
<path d="M1790 4198 c0 -2 14 -50 30 -108 17 -58 35 -147 40 -198 11 -119 35
-168 124 -258 112 -112 243 -174 461 -219 61 -12 111 -21 113 -20 2 2 -6 21
-17 44 -27 52 -78 92 -143 112 -67 20 -83 47 -62 97 19 48 18 52 -15 52 -32 0
-61 30 -61 62 0 10 19 39 41 63 l42 45 -56 0 c-46 0 -59 4 -71 22 -23 32 -20
49 15 98 35 49 41 40 -72 100 -92 48 -234 96 -311 105 -32 3 -58 5 -58 3z"/>
<path d="M5114 4189 c-68 -11 -182 -53 -274 -100 -111 -57 -107 -50 -71 -99
35 -49 38 -66 15 -98 -12 -18 -25 -22 -71 -22 l-56 0 42 -45 c22 -24 41 -53
41 -63 0 -32 -29 -62 -61 -62 -33 0 -34 -4 -15 -52 21 -50 5 -77 -62 -97 -65
-20 -116 -60 -143 -112 -11 -23 -19 -42 -17 -44 2 -1 53 8 113 20 218 45 349
107 461 219 88 89 113 141 125 260 5 50 22 138 39 196 16 58 30 106 30 107 0
5 -43 1 -96 -8z"/>
<path d="M3152 3813 c-24 -136 -82 -236 -172 -293 -74 -48 -145 -133 -196
-235 l-44 -90 17 -72 c18 -71 19 -73 49 -73 129 0 374 -164 374 -250 0 -36
-36 -64 -72 -55 -14 4 -42 -2 -70 -15 -88 -39 -192 -36 -296 7 -7 3 17 -54 53
-127 54 -109 157 -333 202 -440 10 -25 10 -25 33 20 13 25 45 78 72 118 95
141 168 320 168 413 0 62 65 93 105 49 15 -17 17 -31 12 -87 -11 -123 -77
-278 -194 -457 -93 -141 -107 -184 -108 -331 0 -93 4 -131 18 -167 32 -84 106
-125 200 -114 77 10 84 16 65 63 -9 24 -20 36 -29 34 -8 -3 -36 -7 -64 -9 -45
-3 -53 -1 -79 27 -24 25 -30 41 -33 88 -8 111 56 173 178 173 57 0 72 -4 123
-35 32 -19 60 -35 63 -35 2 0 21 13 41 29 51 41 106 54 173 41 97 -18 144 -70
144 -160 0 -102 -62 -152 -154 -124 -30 9 -50 10 -62 3 -20 -10 -54 -68 -45
-76 11 -11 93 -22 126 -16 122 20 177 120 168 307 -7 126 -29 187 -104 287
-98 130 -180 329 -199 482 -6 48 -4 61 10 77 35 39 105 14 105 -37 0 -43 50
-214 84 -289 20 -43 63 -114 95 -158 32 -45 65 -94 73 -109 l14 -28 49 113
c26 62 88 195 136 296 49 101 83 181 76 178 -101 -42 -207 -45 -295 -6 l-47
21 -20 -24 c-31 -37 -58 -42 -91 -14 -35 30 -29 58 29 129 88 109 229 193 342
205 l50 5 18 72 17 71 -44 90 c-52 104 -115 180 -195 234 -92 63 -135 131
-170 273 l-18 73 -74 -1 c-56 -1 -90 -8 -139 -28 -109 -46 -123 -48 -172 -30
-142 54 -177 64 -229 64 l-57 0 -10 -57z m235 -581 c39 -24 70 -231 44 -281
-16 -29 -50 -42 -76 -28 -31 15 -35 27 -35 98 0 36 -7 89 -16 118 -14 48 -14
55 1 77 16 24 57 32 82 16z m288 2 c28 -11 35 -47 19 -100 -8 -26 -14 -77 -14
-113 0 -71 -4 -83 -35 -98 -26 -14 -60 -1 -76 28 -16 31 -6 183 15 234 23 53
46 66 91 49z"/>
<path d="M2757 2904 c-4 -21 2 -30 33 -50 45 -30 131 -42 175 -24 l30 12 -30
24 c-38 31 -126 64 -169 64 -28 0 -34 -4 -39 -26z"/>
<path d="M4129 2915 c-20 -7 -55 -25 -79 -40 -56 -35 -41 -50 49 -50 56 0 74
4 108 27 34 22 40 31 36 52 -5 22 -10 26 -42 25 -20 0 -52 -6 -72 -14z"/>
<path d="M2636 2488 c-39 -168 -56 -298 -56 -443 0 -181 15 -241 104 -420 41
-82 77 -158 80 -167 4 -14 9 -15 35 -5 45 17 78 -2 86 -50 19 -113 55 -169
151 -233 l71 -48 22 21 c31 32 83 28 121 -8 54 -51 83 -127 88 -224 6 -112 34
-169 155 -315 l24 -30 32 44 c67 93 103 183 112 278 8 100 26 154 68 216 43
63 108 79 146 36 17 -18 19 -17 90 32 97 66 125 109 150 230 8 41 47 63 85 49
26 -9 32 -8 36 7 3 9 39 85 80 167 96 195 108 251 101 470 -4 155 -32 337 -70
463 l-13 44 -67 -140 c-80 -168 -167 -374 -197 -462 -12 -35 -26 -103 -31
-151 -15 -146 -47 -219 -127 -289 -43 -38 -46 -44 -43 -86 5 -85 -33 -145
-114 -180 -34 -15 -75 -17 -261 -17 -214 -1 -223 0 -270 24 -70 35 -94 75 -94
160 0 58 -3 68 -20 74 -32 10 -98 94 -120 153 -13 33 -25 99 -30 157 -9 115
-35 195 -134 416 -60 136 -152 328 -159 336 -2 2 -16 -47 -31 -109z"/>
<path d="M3675 1873 c-11 -3 -31 -15 -45 -28 -64 -58 -124 -61 -199 -10 -67
46 -151 49 -151 4 0 -16 4 -17 30 -7 69 24 143 -23 170 -109 19 -58 20 -58 45
-6 12 27 36 61 54 76 37 30 102 51 134 42 12 -4 30 -9 40 -11 20 -6 24 18 5
33 -17 14 -58 21 -83 16z"/>
<path d="M3393 1510 c-12 -5 -49 -12 -82 -16 l-61 -7 0 -33 c0 -53 18 -58 246
-58 174 0 205 2 228 17 18 12 26 26 26 46 0 28 -2 29 -77 41 -43 7 -88 12
-100 11 -56 -5 -120 -4 -138 2 -11 3 -30 2 -42 -3z"/>
</g>
</svg>
