<svg viewBox="0 0 111 22" xmlns="http://www.w3.org/2000/svg">
<path d="M14.336 21.344H10.272V19.744C9.16267 21.0667 7.53067 21.728 5.376 21.728C3.98933 21.728 2.74133 21.28 1.632 20.384C0.544 19.4667 0 18.208 0 16.608C0 14.944 0.533333 13.696 1.6 12.864C2.688 12.032 3.94667 11.616 5.376 11.616C7.57333 11.616 9.20533 12.2453 10.272 13.504V11.424C10.272 10.6347 9.96267 10.0053 9.344 9.536C8.72533 9.06667 7.904 8.832 6.88 8.832C5.19467 8.832 3.69067 9.44 2.368 10.656L0.832 7.936C2.66667 6.31467 4.91733 5.504 7.584 5.504C9.568 5.504 11.1893 5.96267 12.448 6.88C13.7067 7.79733 14.336 9.29067 14.336 11.36V21.344ZM7.008 18.976C8.52267 18.976 9.61067 18.528 10.272 17.632V15.712C9.61067 14.816 8.52267 14.368 7.008 14.368C6.176 14.368 5.48267 14.5813 4.928 15.008C4.37333 15.4133 4.096 15.9787 4.096 16.704C4.096 17.408 4.37333 17.9627 4.928 18.368C5.48267 18.7733 6.176 18.976 7.008 18.976Z" fill="white"/>
<path d="M32.863 21.344H28.799V12C28.799 10.08 27.8497 9.12 25.951 9.12C24.479 9.12 23.3057 9.728 22.431 10.944V21.344H18.367V5.888H22.431V7.904C23.775 6.304 25.5777 5.504 27.839 5.504C29.503 5.504 30.751 5.94133 31.583 6.816C32.4363 7.69067 32.863 8.896 32.863 10.432V21.344Z" fill="white"/>
<path d="M44.0983 21.728C41.7089 21.728 39.7463 20.9707 38.2103 19.456C36.6743 17.9413 35.9062 15.9893 35.9062 13.6C35.9062 11.232 36.6743 9.29067 38.2103 7.776C39.7463 6.26133 41.7089 5.504 44.0983 5.504C46.8289 5.504 48.8663 6.432 50.2103 8.288L47.5543 10.784C46.8076 9.67467 45.7196 9.12 44.2903 9.12C43.0529 9.12 42.0396 9.536 41.2503 10.368C40.4823 11.1787 40.0983 12.256 40.0983 13.6C40.0983 14.944 40.4823 16.032 41.2503 16.864C42.0396 17.696 43.0529 18.112 44.2903 18.112C45.6769 18.112 46.7649 17.5573 47.5543 16.448L50.2103 18.912C48.8663 20.7893 46.8289 21.728 44.0983 21.728Z" fill="white"/>
<path d="M56.931 21.344H52.867V0H56.931V21.344Z" fill="white"/>
<path d="M74.3047 21.344H70.2407V19.744C69.1314 21.0667 67.4994 21.728 65.3447 21.728C63.9581 21.728 62.7101 21.28 61.6007 20.384C60.5127 19.4667 59.9688 18.208 59.9688 16.608C59.9688 14.944 60.5021 13.696 61.5688 12.864C62.6568 12.032 63.9154 11.616 65.3447 11.616C67.5421 11.616 69.1741 12.2453 70.2407 13.504V11.424C70.2407 10.6347 69.9314 10.0053 69.3127 9.536C68.6941 9.06667 67.8727 8.832 66.8487 8.832C65.1634 8.832 63.6594 9.44 62.3368 10.656L60.8008 7.936C62.6354 6.31467 64.8861 5.504 67.5527 5.504C69.5368 5.504 71.1581 5.96267 72.4167 6.88C73.6754 7.79733 74.3047 9.29067 74.3047 11.36V21.344ZM66.9767 18.976C68.4914 18.976 69.5794 18.528 70.2407 17.632V15.712C69.5794 14.816 68.4914 14.368 66.9767 14.368C66.1447 14.368 65.4514 14.5813 64.8968 15.008C64.3421 15.4133 64.0648 15.9787 64.0648 16.704C64.0648 17.408 64.3421 17.9627 64.8968 18.368C65.4514 18.7733 66.1447 18.976 66.9767 18.976Z" fill="white"/>
<path d="M85.5997 21.728C83.2104 21.728 81.2371 20.9813 79.6797 19.488C78.1224 17.9947 77.3438 16.032 77.3438 13.6C77.3438 11.3173 78.0904 9.39734 79.5837 7.84C81.0984 6.28267 83.0184 5.504 85.3438 5.504C87.6478 5.504 89.5144 6.29333 90.9437 7.872C92.3731 9.42933 93.0878 11.4773 93.0878 14.016V14.912H81.5997C81.7277 15.936 82.1864 16.7893 82.9757 17.472C83.7651 18.1547 84.7891 18.496 86.0477 18.496C86.7304 18.496 87.4664 18.3573 88.2558 18.08C89.0664 17.8027 89.7064 17.4293 90.1758 16.96L91.9678 19.584C90.4104 21.0133 88.2878 21.728 85.5997 21.728ZM89.1517 12.16C89.0877 11.2853 88.7357 10.496 88.0957 9.792C87.4771 9.088 86.5598 8.736 85.3438 8.736C84.1917 8.736 83.2957 9.088 82.6557 9.792C82.0157 10.4747 81.6424 11.264 81.5358 12.16H89.1517Z" fill="white"/>
<path d="M104.407 21.344H100.023L93.8152 5.888H98.1673L102.199 16.64L106.231 5.888H110.615L104.407 21.344Z" fill="white"/>
</svg>
